HIERARCHY
ROOT Hips
{
	OFFSET -0.001795 -0.223333 0.028219
	CHANNELS 6 Xposition Yposition Zposition Zrotation Yrotation Xrotation 
	JOINT LeftUpLeg
	{
		OFFSET 0.069520 -0.091406 -0.006815
		CHANNELS 3 Zrotation Yrotation Xrotation
		JOINT LeftLeg
		{
			OFFSET 0.034277 -0.375199 -0.004496
			CHANNELS 3 Zrotation Yrotation Xrotation
			JOINT LeftFoot
			{
				OFFSET -0.013596 -0.397961 -0.043693
				CHANNELS 3 Zrotation Yrotation Xrotation
				JOINT LeftToe
				{
					OFFSET 0.026358 -0.055791 0.119288
					CHANNELS 3 Zrotation Yrotation Xrotation
					End Site
					{
						OFFSET 0.000000 0.000000 0.000000
					}
				}
			}
		}
	}
	JOINT RightUpLeg
	{
		OFFSET -0.067670 -0.090522 -0.004320
		CHANNELS 3 Zrotation Yrotation Xrotation
		JOINT RightLeg
		{
			OFFSET -0.038290 -0.382569 -0.008850
			CHANNELS 3 Zrotation Yrotation Xrotation
			JOINT RightFoot
			{
				OFFSET 0.015774 -0.398415 -0.042312
				CHANNELS 3 Zrotation Yrotation Xrotation
				JOINT RightToe
				{
					OFFSET -0.025372 -0.048144 0.123348
					CHANNELS 3 Zrotation Yrotation Xrotation
					End Site
					{
						OFFSET 0.000000 0.000000 0.000000
					}
				}
			}
		}
	}
	JOINT Spine
	{
		OFFSET -0.002533 0.108963 -0.026696
		CHANNELS 3 Zrotation Yrotation Xrotation
		JOINT Spine1
		{
			OFFSET 0.005487 0.135180 0.001092
			CHANNELS 3 Zrotation Yrotation Xrotation
			JOINT Spine2
			{
				OFFSET 0.001457 0.052922 0.025425
				CHANNELS 3 Zrotation Yrotation Xrotation
				JOINT Neck
				{
					OFFSET -0.002778 0.213870 -0.042857
					CHANNELS 3 Zrotation Yrotation Xrotation
					JOINT Head
					{
						OFFSET 0.005152 0.064970 0.051349
						CHANNELS 3 Zrotation Yrotation Xrotation
						End Site
						{
							OFFSET 0.000000 0.000000 0.000000
						}
					}
				}
				JOINT LeftShoulder
				{
					OFFSET 0.078845 0.121749 -0.034090
					CHANNELS 3 Zrotation Yrotation Xrotation
					JOINT LeftArm
					{
						OFFSET 0.090977 0.030469 -0.008868
						CHANNELS 3 Zrotation Yrotation Xrotation
						JOINT LeftForeArm
						{
							OFFSET 0.259612 -0.012772 -0.027456
							CHANNELS 3 Zrotation Yrotation Xrotation
							JOINT LeftHand
							{
								OFFSET 0.249234 0.008986 -0.001171
								CHANNELS 3 Zrotation Yrotation Xrotation
								End Site
								{
									OFFSET 0.000000 0.000000 0.000000
								}
							}
						}
					}
				}
				JOINT RightShoulder
				{
					OFFSET -0.081759 0.118833 -0.038615
					CHANNELS 3 Zrotation Yrotation Xrotation
					JOINT RightArm
					{
						OFFSET -0.096012 0.032551 -0.009143
						CHANNELS 3 Zrotation Yrotation Xrotation
						JOINT RightForeArm
						{
							OFFSET -0.253742 -0.013329 -0.021401
							CHANNELS 3 Zrotation Yrotation Xrotation
							JOINT RightHand
							{
								OFFSET -0.255298 0.007772 -0.005559
								CHANNELS 3 Zrotation Yrotation Xrotation
								End Site
								{
									OFFSET 0.000000 0.000000 0.000000
								}
							}
						}
					}
				}
			}
		}
	}
}
MOTION
Frames: 18
Frame Time: 0.050000
0.000000 1.001392 0.000000 -0.616819 0.125592 -4.204142 1.193556 0.547038 6.847148 -2.613154 0.295164 -0.522818 0.292621 6.338214 15.968586 0.000000 0.000000 0.000000 1.329550 -0.549845 4.736725 2.068549 -0.232721 -0.432323 0.700160 -5.237490 16.796118 0.000000 0.000000 0.000000 2.211084 -0.740924 12.456448 0.502530 0.418333 -21.618857 -1.633368 2.144404 21.282569 4.427867 -1.750089 -15.861205 0.000000 0.000000 0.000000 -37.010029 -11.078958 4.200487 -35.475488 -0.772161 -4.980467 -10.332020 -22.803725 2.911389 0.000000 0.000000 0.000000 35.682977 8.492966 4.694497 39.360707 2.019929 -5.020479 6.110871 22.696086 1.950798 0.000000 0.000000 0.000000 
0.000042 1.002254 -0.000103 -0.172268 -0.289075 -4.334734 0.985463 0.582825 7.032570 -2.638232 0.304563 -0.902924 0.672207 6.649203 15.224663 0.000000 0.000000 0.000000 1.269685 -0.568940 4.968415 2.040660 -0.224261 -0.258400 0.203551 -5.540575 14.685305 0.000000 0.000000 0.000000 1.513056 -0.707314 13.345742 1.566270 0.148452 -22.557430 -2.090776 2.399463 21.586318 4.487722 -1.786896 -15.974280 0.000000 0.000000 0.000000 -37.167379 -10.898572 4.085217 -34.950176 -0.296432 -5.054534 -10.583157 -23.370028 3.033934 0.000000 0.000000 0.000000 35.219871 9.321209 5.286877 39.411607 1.439030 -5.208725 5.976345 23.650501 2.011080 0.000000 0.000000 0.000000 
0.000037 1.002528 -0.000243 -0.182692 -0.065619 -4.273064 1.225618 0.554394 6.909626 -2.762826 0.315012 -0.776821 0.696517 6.587803 14.747516 0.000000 0.000000 0.000000 1.726581 -0.572584 4.759611 1.327521 -0.139278 0.130029 0.057744 -5.839922 14.930815 0.000000 0.000000 0.000000 1.448190 -0.725551 13.759539 1.815158 0.053408 -21.667702 -2.380734 2.557918 20.834311 4.044116 -1.366624 -16.337678 0.000000 0.000000 0.000000 -36.602495 -10.273520 3.409006 -35.352877 -0.672518 -4.930926 -10.645577 -23.358152 3.041718 0.000000 0.000000 0.000000 34.763521 8.533744 4.812651 40.433167 1.690487 -5.247308 6.087610 24.464148 2.139007 0.000000 0.000000 0.000000 
0.000085 1.002689 -0.000623 -0.207444 0.163347 -4.594884 0.974916 0.554701 6.748581 -2.633951 0.296593 -0.414287 0.883548 6.894016 14.694990 0.000000 0.000000 0.000000 1.861590 -0.613972 5.052613 1.461185 -0.153533 0.172330 0.215835 -5.387807 14.508086 0.000000 0.000000 0.000000 1.478223 -0.774429 14.562595 1.850377 0.064100 -22.004541 -2.236337 2.732073 21.155856 4.411083 -1.442742 -17.560213 0.000000 0.000000 0.000000 -36.923349 -10.709926 3.597362 -34.337064 -0.828057 -4.736956 -11.363578 -23.309511 3.167727 0.000000 0.000000 0.000000 34.981096 8.594435 5.014534 39.266085 2.073388 -5.069128 6.720546 24.472836 2.252849 0.000000 0.000000 0.000000 
0.000136 1.002258 -0.000900 -0.440541 0.237025 -4.600792 1.625581 0.475429 6.261578 -2.914644 0.323198 -0.093492 0.974514 7.033864 14.643254 0.000000 0.000000 0.000000 1.731828 -0.571528 4.744318 1.469251 -0.142401 0.637185 0.859506 -4.297546 14.794589 0.000000 0.000000 0.000000 1.546075 -0.782657 14.505638 2.190203 -0.032341 -21.876528 -2.118759 2.617326 21.764860 3.743801 -1.013709 -17.490900 0.000000 0.000000 0.000000 -37.043957 -10.545797 3.542335 -34.599776 -1.429370 -4.681485 -11.072337 -23.257544 3.106607 0.000000 0.000000 0.000000 34.861344 8.682845 5.076388 39.228641 2.307536 -5.047544 6.176154 24.780199 2.179653 0.000000 0.000000 0.000000 
0.000199 1.002476 -0.001038 -0.290552 0.365568 -4.577494 1.488837 0.471025 6.116399 -2.782183 0.305787 0.123785 0.986854 6.794186 13.642046 0.000000 0.000000 0.000000 1.589814 -0.549473 4.619372 1.518991 -0.140479 0.942300 0.807764 -4.136282 14.088721 0.000000 0.000000 0.000000 1.348750 -0.775993 14.818847 2.835669 -0.190476 -22.140780 -2.390555 2.774971 21.936302 3.403934 -0.907170 -16.052736 0.000000 0.000000 0.000000 -38.034172 -11.001587 3.756536 -33.705380 -1.205166 -4.579832 -10.873528 -23.167420 3.044774 0.000000 0.000000 0.000000 34.992125 9.311833 5.663162 38.737974 2.217069 -5.055008 5.742976 25.101622 2.115081 0.000000 0.000000 0.000000 
0.000288 1.002370 -0.001012 -0.191953 0.456031 -4.491657 1.591212 0.456381 6.014805 -2.898019 0.318155 0.112707 0.987016 6.756281 13.468562 0.000000 0.000000 0.000000 1.420287 -0.523405 4.465249 1.465817 -0.131042 1.073969 0.799070 -3.988087 13.641188 0.000000 0.000000 0.000000 1.554347 -0.805479 14.862510 2.527770 -0.107799 -22.087262 -2.481689 2.847486 22.115398 3.084311 -0.757816 -15.186308 0.000000 0.000000 0.000000 -37.920910 -11.290044 3.924808 -33.777898 -1.530172 -4.510227 -10.905433 -23.220660 3.056388 0.000000 0.000000 0.000000 35.184595 9.284231 5.726721 38.724599 2.442887 -5.026421 5.776559 24.890827 2.103702 0.000000 0.000000 0.000000 
0.000366 1.003262 -0.000911 -0.099899 0.291846 -4.542131 1.640878 0.449898 5.933667 -2.769196 0.299970 0.620740 0.822929 6.259595 12.702562 0.000000 0.000000 0.000000 1.323558 -0.490688 4.227306 1.638885 -0.134805 1.715430 0.659680 -4.061414 13.016309 0.000000 0.000000 0.000000 1.489295 -0.811174 15.183205 2.566882 -0.134959 -21.835373 -2.260525 3.121641 22.080010 3.891016 -1.431780 -14.310995 0.000000 0.000000 0.000000 -37.296454 -11.487576 4.010447 -34.478814 -2.202609 -4.425461 -10.714947 -23.334362 3.035607 0.000000 0.000000 0.000000 35.020810 9.004427 5.581708 38.573617 2.925057 -4.891371 5.628543 24.888487 2.078564 0.000000 0.000000 0.000000 
0.000425 1.004356 -0.000833 -0.128735 0.170558 -4.444595 1.649357 0.421169 5.552611 -2.803830 0.298500 1.253042 0.643397 5.830032 12.274618 0.000000 0.000000 0.000000 1.213463 -0.422676 3.665934 1.661744 -0.123512 2.257163 0.694124 -3.963849 12.874583 0.000000 0.000000 0.000000 1.710843 -0.849601 15.380555 2.247531 -0.050606 -21.840792 -2.053917 3.256058 22.025534 4.398245 -1.810638 -14.232279 0.000000 0.000000 0.000000 -37.121605 -11.676106 4.130091 -34.511735 -2.295692 -4.399529 -10.641373 -23.360707 3.022716 0.000000 0.000000 0.000000 35.293880 8.755101 5.433250 38.296492 3.163665 -4.801104 5.376320 25.224778 2.062776 0.000000 0.000000 0.000000 
0.000553 1.005526 -0.000818 -0.274161 0.276068 -4.573786 1.800340 0.414477 5.583318 -2.804074 0.292119 1.830404 0.715782 5.649789 11.232123 0.000000 0.000000 0.000000 1.071452 -0.378379 3.319703 1.852777 -0.137334 2.747233 0.643873 -3.775104 12.111651 0.000000 0.000000 0.000000 1.981541 -0.922542 15.973254 2.051526 -0.002767 -21.638416 -1.857164 3.492978 21.617051 4.769830 -2.151792 -13.421212 0.000000 0.000000 0.000000 -37.069486 -11.820513 4.054713 -34.421048 -2.279730 -4.319582 -10.648990 -23.596666 3.049195 0.000000 0.000000 0.000000 35.766514 8.518566 5.400959 37.521100 3.426791 -4.652662 5.357792 25.353031 2.066497 0.000000 0.000000 0.000000 
0.000763 1.006060 -0.000741 -0.263160 0.348307 -4.795915 1.904520 0.403744 5.510530 -2.947164 0.306744 2.184495 0.793858 5.705927 10.960500 0.000000 0.000000 0.000000 1.054195 -0.400632 3.531986 1.730239 -0.116846 2.943052 0.562103 -3.770095 11.681974 0.000000 0.000000 0.000000 1.929373 -0.923445 16.109989 1.964357 0.011681 -21.367080 -1.499612 3.675360 21.497195 4.937952 -2.283171 -13.179867 0.000000 0.000000 0.000000 -36.697615 -11.779071 3.920628 -34.769134 -2.306769 -4.330474 -10.769888 -23.755646 3.094660 0.000000 0.000000 0.000000 35.746709 8.507224 5.489149 37.375509 3.673654 -4.592971 5.303652 25.583278 2.081040 0.000000 0.000000 0.000000 
0.000960 1.005811 -0.000630 -0.415363 0.680365 -4.982262 2.161088 0.403339 5.743235 -3.057520 0.318350 2.179843 0.639031 5.469772 10.907238 0.000000 0.000000 0.000000 1.229526 -0.425656 3.682400 1.559052 -0.095442 2.953524 0.536953 -3.611891 11.236427 0.000000 0.000000 0.000000 2.117286 -0.968107 16.298970 1.853813 0.048140 -21.301796 -1.351200 3.824103 21.731516 5.236090 -2.594078 -12.375333 0.000000 0.000000 0.000000 -36.207631 -11.851509 3.819351 -35.304638 -2.355485 -4.367911 -10.345131 -23.880771 3.020332 0.000000 0.000000 0.000000 35.869998 8.343060 5.565496 37.115283 4.219485 -4.495918 5.203358 25.641628 2.073927 0.000000 0.000000 0.000000 
0.000952 1.005249 -0.000622 -0.384353 1.051536 -4.962908 2.174354 0.398169 5.744935 -3.095985 0.321087 2.083566 0.460548 5.242833 11.001277 0.000000 0.000000 0.000000 1.063995 -0.399564 3.502793 1.580086 -0.099427 2.987998 0.535697 -3.491286 11.031366 0.000000 0.000000 0.000000 2.542977 -1.028328 16.226327 0.986767 0.306611 -21.288721 -1.415128 3.748216 21.835566 5.360752 -2.775195 -11.770174 0.000000 0.000000 0.000000 -35.813461 -11.898269 3.794256 -35.360160 -2.261795 -4.397943 -10.002067 -24.133043 2.978833 0.000000 0.000000 0.000000 36.255591 7.901294 5.339514 37.034876 4.577506 -4.432417 5.324916 25.742196 2.117902 0.000000 0.000000 0.000000 
0.000934 1.005324 -0.000608 -0.312022 1.037115 -4.900991 2.277308 0.409480 5.989863 -3.330168 0.353413 1.654868 0.445436 5.280360 11.202751 0.000000 0.000000 0.000000 0.883238 -0.375004 3.346328 1.695599 -0.112816 3.083613 0.617096 -3.369605 11.130869 0.000000 0.000000 0.000000 3.113665 -1.087879 15.975781 -0.213225 0.639571 -21.169116 -1.441079 3.730468 21.824610 6.233201 -3.561991 -11.192160 0.000000 0.000000 0.000000 -35.094912 -12.281889 4.100512 -35.865722 -2.008686 -4.541355 -9.281789 -24.185115 2.833458 0.000000 0.000000 0.000000 36.811840 7.390548 4.967158 36.954116 4.885895 -4.345353 5.276182 25.598507 2.099223 0.000000 0.000000 0.000000 
0.000988 1.005199 -0.000487 -0.357504 1.309976 -4.864368 2.310954 0.428284 6.354304 -3.220368 0.339275 1.413374 0.324623 5.059188 11.048316 0.000000 0.000000 0.000000 0.913425 -0.376954 3.345257 1.985053 -0.159512 2.843098 0.473718 -3.731544 11.466971 0.000000 0.000000 0.000000 3.115533 -1.110707 16.188623 -0.254368 0.668180 -21.703636 -1.505818 3.526881 22.107580 6.715989 -3.916530 -11.472278 0.000000 0.000000 0.000000 -35.122035 -12.282853 4.130508 -35.840660 -1.929611 -4.587023 -9.141080 -24.111273 2.795418 0.000000 0.000000 0.000000 36.899248 7.147492 4.784647 36.998456 4.958408 -4.354782 5.238194 25.675964 2.103559 0.000000 0.000000 0.000000 
0.001136 1.004813 -0.000312 -0.317805 1.102261 -4.889816 2.261984 0.443015 6.476089 -3.040924 0.322215 1.071455 0.354287 5.158334 11.270043 0.000000 0.000000 0.000000 0.977791 -0.391833 3.462787 2.003963 -0.159347 2.911071 0.451863 -3.740055 11.284528 0.000000 0.000000 0.000000 2.930654 -1.100715 16.482283 0.075206 0.578889 -21.948802 -1.646119 3.768069 21.973418 6.834430 -4.005073 -11.384467 0.000000 0.000000 0.000000 -34.905449 -11.784723 3.709595 -36.087329 -2.268726 -4.512960 -9.266145 -23.745495 2.775921 0.000000 0.000000 0.000000 36.780084 6.751245 4.522347 37.255254 5.093318 -4.350345 5.263365 25.677406 2.119297 0.000000 0.000000 0.000000 
0.000963 1.003755 0.000049 -0.414355 1.132050 -4.790790 2.277275 0.429454 6.309873 -2.709309 0.283035 1.052964 0.226076 5.147609 11.879830 0.000000 0.000000 0.000000 1.214345 -0.384511 3.307669 1.970670 -0.144173 3.421687 0.336349 -3.889018 11.079692 0.000000 0.000000 0.000000 3.018165 -1.109886 16.404099 0.123497 0.565984 -21.933371 -1.666331 3.586036 21.964507 6.738623 -3.899865 -11.648050 0.000000 0.000000 0.000000 -34.751034 -11.570964 3.630660 -36.154684 -2.544911 -4.467281 -9.129497 -23.893441 2.769115 0.000000 0.000000 0.000000 36.383223 6.436063 4.193580 37.627731 5.248454 -4.317495 5.398939 25.734274 2.161849 0.000000 0.000000 0.000000 
0.000110 1.002352 0.000633 -0.519760 1.106739 -4.530256 2.499874 0.387736 5.905493 -2.206710 0.223377 1.079914 0.095336 5.052881 12.257120 0.000000 0.000000 0.000000 1.544110 -0.375939 3.110723 1.687303 -0.106167 3.329755 0.138769 -4.257425 11.022993 0.000000 0.000000 0.000000 3.336396 -1.131076 16.049982 -0.025514 0.610254 -22.138648 -1.792433 3.616743 22.125333 6.957973 -4.123158 -11.385551 0.000000 0.000000 0.000000 -34.791436 -11.603207 3.650722 -35.771742 -2.801554 -4.361506 -9.616177 -23.783633 2.853701 0.000000 0.000000 0.000000 36.587948 6.125494 3.987326 37.450165 5.634008 -4.218985 5.628817 25.398086 2.177945 0.000000 0.000000 0.000000 
